<svg height="200px" width="200px" version="1.1" id="Layer_1" xmlns="http://www.w3.org/2000/svg" xmlns:xlink="http://www.w3.org/1999/xlink" viewBox="0 0 512 512" xml:space="preserve" fill="#0693e3"><g id="SVGRepo_bgCarrier" stroke-width="0"></g><g id="SVGRepo_tracerCarrier" stroke-linecap="round" stroke-linejoin="round"></g><g id="SVGRepo_iconCarrier"> <path style="fill:#0693e3;" d="M512,256.006C512,397.402,397.394,512.004,256.004,512C114.606,512.004,0,397.402,0,256.006 C-0.007,114.61,114.606,0,256.004,0C397.394,0,512,114.614,512,256.006z"></path> <path style="fill:#0693e3;" d="M512,256.005c0-23.06-3.099-45.388-8.815-66.643c-0.161-0.138-0.276-0.32-0.448-0.448 c-0.442-0.633-80.146-80.317-81.422-80.844c-2.644-1.098-5.69-0.49-7.712,1.534L256.235,267.179L98.383,109.707 c-2.022-2.01-5.074-2.603-7.698-1.526c-2.643,1.098-4.364,3.674-4.364,6.531v121.011c0,1.884,0.753,3.686,2.093,5.02l1.606,1.597 c0.011,0.011,0.014,0.026,0.026,0.037c51.862,51.485,103.353,103.341,155.026,155.014c0.011,0.011,0.013,0.023,0.023,0.034 l1.606,1.597c0.011,0.011,0.014,0.025,0.025,0.035l1.609,1.598c0.011,0.011,94.661,94.661,94.661,94.661 c0.011,0.011,0.013,0.025,0.023,0.035l1.093,1.085C442.091,460.526,512,366.437,512,256.005z"></path> <path style="fill:#F4F6F9;" d="M421.315,108.07c-2.644-1.098-5.689-0.491-7.712,1.533L256.235,267.179L98.383,109.707 c-2.023-2.01-5.074-2.603-7.698-1.525c-2.644,1.098-4.364,3.673-4.364,6.531v121.01c0,1.885,0.753,3.686,2.092,5.02l162.851,161.677 c1.374,1.367,3.175,2.05,4.978,2.05c1.803,0,3.611-0.69,4.992-2.064L423.6,240.619c1.332-1.326,2.078-3.127,2.078-5.006v-121.01 C425.678,111.744,423.952,109.162,421.315,108.07z M411.538,232.678L256.235,387.429L100.462,232.782V131.753l150.788,150.43 c2.762,2.748,7.235,2.755,9.997-0.007l150.291-150.492V232.678z"></path> </g></svg>